<svg xmlns="http://www.w3.org/2000/svg" xmlns:xlink="http://www.w3.org/1999/xlink" version="1.1" x="0px" y="0px" viewBox="0 0 100 125" enable-background="new 0 0 100 100" xml:space="preserve"><path d="M86.356,25.329c-0.201-0.189-0.465-0.293-0.745-0.271l-13.286,0.784c-0.929-1.974-2.203-3.778-3.869-5.386  c-4.163-4.014-10.677-6.975-19.915-9.052c-2.952-0.664-5.938-1.001-8.877-1.001c-13.286,0-23.701,6.615-25.915,16.459  c-1.858,8.262,2.626,21.802,10.209,30.825c2.972,3.536,4.429,7.536,4.455,12.229l0.084,15.431c0.013,2.595,9.125,4.25,15.392,4.25  c1.597,0,15.603-0.119,15.603-4.256V75.218l4.697,1.719c0.873,0.234,1.751,0.349,2.594,0.349c1.65,0,3.168-0.438,4.255-1.272  c1.198-0.92,1.833-2.241,1.833-3.821v-7.577c1.16-1.095,1.606-2.697,1.328-4.778c0.635-0.687,1.135-1.776,0.755-3.472l-0.886-2.857  l2.261-2.635l9.283,0.547c0.021,0.002,0.04,0.002,0.06,0.002c0.254,0,0.5-0.097,0.686-0.271c0.2-0.189,0.314-0.453,0.314-0.729  V26.056C86.671,25.78,86.557,25.518,86.356,25.329z M67.165,48.329c-2.792-0.166-5.459-1.344-7.511-3.317  c-0.701-0.675-1.284-1.413-1.754-2.192h3.151v1.156h2v-1.156v-9.161v-1.236h-2v1.236h-3.148c0.47-0.776,1.051-1.515,1.751-2.187  c2.054-1.978,4.722-3.157,7.511-3.322l14.131-0.833c-0.814,1.025-1.313,2.312-1.313,3.729v14.388c0,1.418,0.499,2.703,1.313,3.729  L67.165,48.329z M31.202,40.403c1.963,0,3.561-1.598,3.561-3.562v-3.705c1.614,1.128,2.681,2.987,2.681,5.103  c0,3.441-2.8,6.242-6.242,6.242c-3.442,0-6.243-2.801-6.243-6.242c0-2.115,1.066-3.973,2.681-5.102v3.704  C27.64,38.806,29.238,40.403,31.202,40.403z M29.64,36.842V24.862h3.123v11.979c0,0.86-0.7,1.562-1.561,1.562  C30.34,38.403,29.64,37.702,29.64,36.842z M39.027,35.658h22.025v5.161H39.024c0.269-0.813,0.419-1.678,0.419-2.58  S39.296,36.471,39.027,35.658z M84.577,27.3v21.881c-1.535-0.566-2.595-2.028-2.595-3.748V31.045  C81.982,29.331,83.036,27.872,84.577,27.3z M72.188,52.624c-0.224,0.261-0.298,0.619-0.195,0.947l1.029,3.307  c0.153,0.691,0.051,1.118-0.146,1.415h-5.544c-0.552,0-1,0.448-1,1s0.448,1,1,1h4.899c0.202,1.833-0.382,2.599-0.901,3.007  l-2.475,1.186c-0.498,0.238-0.708,0.836-0.469,1.334c0.172,0.359,0.529,0.568,0.902,0.568c0.145,0,0.291-0.031,0.432-0.099  l1.148-0.55v6.452c0,0.948-0.354,1.7-1.051,2.235c-1.145,0.877-3.15,1.104-5.028,0.605l-19.318-7.074  c-0.518-0.191-1.093,0.076-1.283,0.595s0.077,1.093,0.595,1.282l12.713,4.654l0.008,10.77c-0.421,0.84-5.332,2.338-13.619,2.338  c-7.024,0-12.402-1.706-13.394-2.513l-0.083-15.179c-0.028-5.178-1.638-9.596-4.923-13.505c-7.225-8.598-11.525-21.38-9.789-29.099  c1.973-8.771,11.828-14.898,23.964-14.898c2.792,0,5.631,0.32,8.439,0.952c8.87,1.995,15.073,4.788,18.965,8.54  c1.289,1.244,2.311,2.604,3.103,4.074l-3.124,0.184c-3.264,0.193-6.381,1.57-8.778,3.877c-1.129,1.086-1.997,2.317-2.617,3.628  H38.024c-0.816-1.21-1.937-2.192-3.262-2.831v-6.965c0-0.553-0.448-1-1-1H28.64c-0.552,0-1,0.447-1,1v6.965  c-2.762,1.332-4.681,4.146-4.681,7.412c0,4.545,3.698,8.242,8.243,8.242c2.851,0,5.367-1.455,6.848-3.662h17.599  c0.619,1.313,1.489,2.547,2.619,3.634c2.395,2.304,5.513,3.679,8.778,3.872l6.773,0.398L72.188,52.624z"/><text x="0" y="115" fill="#000000" font-size="5px" font-weight="bold" font-family="'Helvetica Neue', Helvetica, Arial-Unicode, Arial, Sans-serif">Created by Nikita Kozin</text><text x="0" y="120" fill="#000000" font-size="5px" font-weight="bold" font-family="'Helvetica Neue', Helvetica, Arial-Unicode, Arial, Sans-serif">from the Noun Project</text></svg>